<mxfile host="app.diagrams.net" modified="2024-03-07T18:18:54.705Z" agent="Mozilla/5.0 (Windows NT 10.0; Win64; x64) AppleWebKit/537.36 (KHTML, like Gecko) Chrome/122.0.0.0 Safari/537.36" etag="faaCAxweSyF0IZCyJv51" version="24.0.2" type="device">
  <diagram id="prtHgNgQTEPvFCAcTncT" name="Page-1">
    <mxGraphModel dx="1235" dy="624" grid="0" gridSize="10" guides="1" tooltips="1" connect="1" arrows="1" fold="1" page="1" pageScale="1" pageWidth="827" pageHeight="1169" math="0" shadow="0">
      <root>
        <mxCell id="0" />
        <mxCell id="1" parent="0" />
        <mxCell id="dNxyNK7c78bLwvsdeMH5-11" value="Orgchart" style="swimlane;html=1;startSize=20;horizontal=1;containerType=tree;glass=0;" parent="1" vertex="1">
          <mxGeometry x="40" y="80" width="710" height="290" as="geometry" />
        </mxCell>
        <UserObject label="%name%&lt;br&gt;&lt;i style=&quot;color: gray&quot;&gt;%position%&lt;/i&gt;&lt;br&gt;&lt;a href=&quot;mailto:%email%&quot;&gt;Email&lt;/a&gt;" name="Tessa Miller" position="CFO" location="Office 1" email="me@example.com" placeholders="1" link="https://www.draw.io" id="dNxyNK7c78bLwvsdeMH5-12">
          <mxCell style="label;image=https://cdn3.iconfinder.com/data/icons/user-avatars-1/512/users-3-128.png;whiteSpace=wrap;html=1;rounded=0;glass=0;treeMoving=1;treeFolding=1;" parent="dNxyNK7c78bLwvsdeMH5-11" vertex="1">
            <mxGeometry x="260" y="50" width="180" height="70" as="geometry" />
          </mxCell>
        </UserObject>
        <mxCell id="dNxyNK7c78bLwvsdeMH5-13" value="" style="endArrow=blockThin;endFill=1;fontSize=11;edgeStyle=elbowEdgeStyle;elbow=vertical;rounded=0;" parent="dNxyNK7c78bLwvsdeMH5-11" source="dNxyNK7c78bLwvsdeMH5-12" target="dNxyNK7c78bLwvsdeMH5-14" edge="1">
          <mxGeometry relative="1" as="geometry" />
        </mxCell>
        <UserObject label="%name%&lt;br&gt;&lt;i style=&quot;color: gray&quot;&gt;%position%&lt;/i&gt;&lt;br&gt;&lt;a href=&quot;mailto:%email%&quot;&gt;Email&lt;/a&gt;" name="Edward Morrison" position="Brand Manager" location="Office 2" email="me@example.com" placeholders="1" link="https://www.draw.io" id="dNxyNK7c78bLwvsdeMH5-14">
          <mxCell style="label;image=https://cdn3.iconfinder.com/data/icons/user-avatars-1/512/users-10-3-128.png;whiteSpace=wrap;html=1;rounded=0;glass=0;treeFolding=1;treeMoving=1;" parent="dNxyNK7c78bLwvsdeMH5-11" vertex="1">
            <mxGeometry x="40" y="180" width="180" height="80" as="geometry" />
          </mxCell>
        </UserObject>
        <mxCell id="dNxyNK7c78bLwvsdeMH5-15" value="" style="endArrow=blockThin;endFill=1;fontSize=11;edgeStyle=elbowEdgeStyle;elbow=vertical;rounded=0;" parent="dNxyNK7c78bLwvsdeMH5-11" source="dNxyNK7c78bLwvsdeMH5-12" target="dNxyNK7c78bLwvsdeMH5-16" edge="1">
          <mxGeometry relative="1" as="geometry" />
        </mxCell>
        <UserObject label="%name%&lt;br&gt;&lt;i style=&quot;color: gray&quot;&gt;%position%&lt;/i&gt;&lt;br&gt;&lt;a href=&quot;mailto:%email%&quot;&gt;Email&lt;/a&gt;" name="Evan Valet" position="HR Director" location="Office 4" email="me@example.com" placeholders="1" link="https://www.draw.io" id="dNxyNK7c78bLwvsdeMH5-16">
          <mxCell style="label;image=https://cdn3.iconfinder.com/data/icons/user-avatars-1/512/users-9-2-128.png;whiteSpace=wrap;html=1;rounded=0;glass=0;treeFolding=1;treeMoving=1;" parent="dNxyNK7c78bLwvsdeMH5-11" vertex="1">
            <mxGeometry x="260" y="180" width="180" height="80" as="geometry" />
          </mxCell>
        </UserObject>
        <mxCell id="dNxyNK7c78bLwvsdeMH5-17" value="" style="endArrow=blockThin;endFill=1;fontSize=11;edgeStyle=elbowEdgeStyle;elbow=vertical;rounded=0;" parent="dNxyNK7c78bLwvsdeMH5-11" source="dNxyNK7c78bLwvsdeMH5-12" target="dNxyNK7c78bLwvsdeMH5-18" edge="1">
          <mxGeometry relative="1" as="geometry" />
        </mxCell>
        <UserObject label="%name%&lt;br&gt;&lt;i style=&quot;color: gray&quot;&gt;%position%&lt;/i&gt;&lt;br&gt;&lt;a href=&quot;mailto:%email%&quot;&gt;Email&lt;/a&gt;" name="Alison Donovan" position="System Admin" location="Office 3" email="me@example.com" placeholders="1" link="https://www.draw.io" id="dNxyNK7c78bLwvsdeMH5-18">
          <mxCell style="label;image=https://cdn3.iconfinder.com/data/icons/user-avatars-1/512/users-2-128.png;whiteSpace=wrap;html=1;rounded=0;glass=0;" parent="dNxyNK7c78bLwvsdeMH5-11" vertex="1">
            <mxGeometry x="490" y="180" width="180" height="80" as="geometry" />
          </mxCell>
        </UserObject>
        <mxCell id="NywhrogExcATkgul4nDJ-70" value="" style="group" vertex="1" connectable="0" parent="1">
          <mxGeometry x="90" y="434" width="700" height="438" as="geometry" />
        </mxCell>
        <mxCell id="NywhrogExcATkgul4nDJ-43" style="edgeStyle=orthogonalEdgeStyle;rounded=0;orthogonalLoop=1;jettySize=auto;html=1;exitX=0;exitY=0.5;exitDx=0;exitDy=0;entryX=1;entryY=0.5;entryDx=0;entryDy=0;" edge="1" parent="NywhrogExcATkgul4nDJ-70" source="NywhrogExcATkgul4nDJ-12" target="NywhrogExcATkgul4nDJ-19">
          <mxGeometry relative="1" as="geometry" />
        </mxCell>
        <mxCell id="NywhrogExcATkgul4nDJ-44" style="edgeStyle=orthogonalEdgeStyle;rounded=0;orthogonalLoop=1;jettySize=auto;html=1;entryX=1;entryY=0.5;entryDx=0;entryDy=0;" edge="1" parent="NywhrogExcATkgul4nDJ-70" source="NywhrogExcATkgul4nDJ-12" target="NywhrogExcATkgul4nDJ-28">
          <mxGeometry relative="1" as="geometry" />
        </mxCell>
        <mxCell id="NywhrogExcATkgul4nDJ-66" style="edgeStyle=orthogonalEdgeStyle;rounded=0;orthogonalLoop=1;jettySize=auto;html=1;exitX=0.5;exitY=0;exitDx=0;exitDy=0;entryX=0.5;entryY=1;entryDx=0;entryDy=0;" edge="1" parent="NywhrogExcATkgul4nDJ-70" source="NywhrogExcATkgul4nDJ-12" target="NywhrogExcATkgul4nDJ-59">
          <mxGeometry relative="1" as="geometry" />
        </mxCell>
        <mxCell id="NywhrogExcATkgul4nDJ-12" value="Главное меню" style="whiteSpace=wrap;html=1;aspect=fixed;" vertex="1" parent="NywhrogExcATkgul4nDJ-70">
          <mxGeometry x="355" y="206" width="80" height="80" as="geometry" />
        </mxCell>
        <mxCell id="NywhrogExcATkgul4nDJ-48" style="edgeStyle=orthogonalEdgeStyle;rounded=0;orthogonalLoop=1;jettySize=auto;html=1;exitX=0;exitY=0.5;exitDx=0;exitDy=0;" edge="1" parent="NywhrogExcATkgul4nDJ-70" source="NywhrogExcATkgul4nDJ-19" target="NywhrogExcATkgul4nDJ-46">
          <mxGeometry relative="1" as="geometry" />
        </mxCell>
        <mxCell id="NywhrogExcATkgul4nDJ-49" style="edgeStyle=orthogonalEdgeStyle;rounded=0;orthogonalLoop=1;jettySize=auto;html=1;exitX=0;exitY=0.5;exitDx=0;exitDy=0;entryX=1;entryY=0.5;entryDx=0;entryDy=0;" edge="1" parent="NywhrogExcATkgul4nDJ-70" source="NywhrogExcATkgul4nDJ-19" target="NywhrogExcATkgul4nDJ-47">
          <mxGeometry relative="1" as="geometry" />
        </mxCell>
        <mxCell id="NywhrogExcATkgul4nDJ-50" style="edgeStyle=orthogonalEdgeStyle;rounded=0;orthogonalLoop=1;jettySize=auto;html=1;exitX=0;exitY=0.5;exitDx=0;exitDy=0;entryX=1;entryY=0.5;entryDx=0;entryDy=0;" edge="1" parent="NywhrogExcATkgul4nDJ-70" source="NywhrogExcATkgul4nDJ-19" target="NywhrogExcATkgul4nDJ-45">
          <mxGeometry relative="1" as="geometry" />
        </mxCell>
        <mxCell id="NywhrogExcATkgul4nDJ-19" value="Меню авторизованного пользователя" style="swimlane;horizontal=0;whiteSpace=wrap;html=1;startSize=40;" vertex="1" parent="NywhrogExcATkgul4nDJ-70">
          <mxGeometry x="180" y="26" width="130" height="220" as="geometry" />
        </mxCell>
        <mxCell id="NywhrogExcATkgul4nDJ-20" value="Меню" style="text;html=1;align=center;verticalAlign=middle;resizable=0;points=[];autosize=1;strokeColor=none;fillColor=none;" vertex="1" parent="NywhrogExcATkgul4nDJ-19">
          <mxGeometry x="45" y="2" width="60" height="30" as="geometry" />
        </mxCell>
        <mxCell id="NywhrogExcATkgul4nDJ-22" value="Кухня" style="text;html=1;align=center;verticalAlign=middle;whiteSpace=wrap;rounded=0;" vertex="1" parent="NywhrogExcATkgul4nDJ-19">
          <mxGeometry x="45" y="25" width="60" height="30" as="geometry" />
        </mxCell>
        <mxCell id="NywhrogExcATkgul4nDJ-23" value="Избранное" style="text;html=1;align=center;verticalAlign=middle;whiteSpace=wrap;rounded=0;" vertex="1" parent="NywhrogExcATkgul4nDJ-19">
          <mxGeometry x="45" y="50" width="60" height="30" as="geometry" />
        </mxCell>
        <mxCell id="NywhrogExcATkgul4nDJ-24" value="Профиль" style="text;html=1;align=center;verticalAlign=middle;whiteSpace=wrap;rounded=0;" vertex="1" parent="NywhrogExcATkgul4nDJ-19">
          <mxGeometry x="45" y="76" width="60" height="30" as="geometry" />
        </mxCell>
        <mxCell id="NywhrogExcATkgul4nDJ-25" value="Бонусы" style="text;html=1;align=center;verticalAlign=middle;whiteSpace=wrap;rounded=0;" vertex="1" parent="NywhrogExcATkgul4nDJ-19">
          <mxGeometry x="45" y="103" width="60" height="30" as="geometry" />
        </mxCell>
        <mxCell id="NywhrogExcATkgul4nDJ-26" value="Корзина" style="text;html=1;align=center;verticalAlign=middle;whiteSpace=wrap;rounded=0;" vertex="1" parent="NywhrogExcATkgul4nDJ-19">
          <mxGeometry x="45" y="130" width="60" height="30" as="geometry" />
        </mxCell>
        <mxCell id="NywhrogExcATkgul4nDJ-27" value="Отзывы" style="text;html=1;align=center;verticalAlign=middle;whiteSpace=wrap;rounded=0;" vertex="1" parent="NywhrogExcATkgul4nDJ-19">
          <mxGeometry x="45" y="154" width="60" height="30" as="geometry" />
        </mxCell>
        <mxCell id="NywhrogExcATkgul4nDJ-36" value="Выход" style="text;html=1;align=center;verticalAlign=middle;whiteSpace=wrap;rounded=0;" vertex="1" parent="NywhrogExcATkgul4nDJ-19">
          <mxGeometry x="45" y="182" width="60" height="30" as="geometry" />
        </mxCell>
        <mxCell id="NywhrogExcATkgul4nDJ-28" value="Меню неавторизованного пользователя" style="swimlane;horizontal=0;whiteSpace=wrap;html=1;startSize=40;" vertex="1" parent="NywhrogExcATkgul4nDJ-70">
          <mxGeometry x="180" y="258" width="130" height="180" as="geometry" />
        </mxCell>
        <mxCell id="NywhrogExcATkgul4nDJ-29" value="Меню" style="text;html=1;align=center;verticalAlign=middle;resizable=0;points=[];autosize=1;strokeColor=none;fillColor=none;" vertex="1" parent="NywhrogExcATkgul4nDJ-28">
          <mxGeometry x="50" y="8" width="60" height="30" as="geometry" />
        </mxCell>
        <mxCell id="NywhrogExcATkgul4nDJ-30" value="Регистрация" style="text;html=1;align=center;verticalAlign=middle;whiteSpace=wrap;rounded=0;" vertex="1" parent="NywhrogExcATkgul4nDJ-28">
          <mxGeometry x="50" y="73" width="60" height="30" as="geometry" />
        </mxCell>
        <mxCell id="NywhrogExcATkgul4nDJ-37" value="Авторизация" style="text;html=1;align=center;verticalAlign=middle;whiteSpace=wrap;rounded=0;" vertex="1" parent="NywhrogExcATkgul4nDJ-28">
          <mxGeometry x="50" y="138" width="60" height="30" as="geometry" />
        </mxCell>
        <mxCell id="NywhrogExcATkgul4nDJ-41" style="edgeStyle=orthogonalEdgeStyle;rounded=0;orthogonalLoop=1;jettySize=auto;html=1;exitX=1;exitY=0.5;exitDx=0;exitDy=0;entryX=0;entryY=0.5;entryDx=0;entryDy=0;" edge="1" parent="NywhrogExcATkgul4nDJ-70" source="NywhrogExcATkgul4nDJ-38" target="NywhrogExcATkgul4nDJ-39">
          <mxGeometry relative="1" as="geometry" />
        </mxCell>
        <mxCell id="NywhrogExcATkgul4nDJ-38" value="Регистрация" style="rounded=0;whiteSpace=wrap;html=1;" vertex="1" parent="NywhrogExcATkgul4nDJ-70">
          <mxGeometry x="380" y="336" width="120" height="60" as="geometry" />
        </mxCell>
        <mxCell id="NywhrogExcATkgul4nDJ-52" style="edgeStyle=orthogonalEdgeStyle;rounded=0;orthogonalLoop=1;jettySize=auto;html=1;exitX=0.5;exitY=0;exitDx=0;exitDy=0;entryX=1;entryY=0.5;entryDx=0;entryDy=0;" edge="1" parent="NywhrogExcATkgul4nDJ-70" source="NywhrogExcATkgul4nDJ-39" target="NywhrogExcATkgul4nDJ-12">
          <mxGeometry relative="1" as="geometry" />
        </mxCell>
        <mxCell id="NywhrogExcATkgul4nDJ-39" value="Авторизация" style="rounded=0;whiteSpace=wrap;html=1;" vertex="1" parent="NywhrogExcATkgul4nDJ-70">
          <mxGeometry x="540" y="336" width="120" height="60" as="geometry" />
        </mxCell>
        <mxCell id="NywhrogExcATkgul4nDJ-45" value="Формирование заказа" style="shape=process;whiteSpace=wrap;html=1;backgroundOutline=1;" vertex="1" parent="NywhrogExcATkgul4nDJ-70">
          <mxGeometry y="106" width="120" height="60" as="geometry" />
        </mxCell>
        <mxCell id="NywhrogExcATkgul4nDJ-46" value="Изменение профиля" style="shape=process;whiteSpace=wrap;html=1;backgroundOutline=1;" vertex="1" parent="NywhrogExcATkgul4nDJ-70">
          <mxGeometry y="26" width="120" height="60" as="geometry" />
        </mxCell>
        <mxCell id="NywhrogExcATkgul4nDJ-47" value="Отзыв, оценка" style="shape=process;whiteSpace=wrap;html=1;backgroundOutline=1;" vertex="1" parent="NywhrogExcATkgul4nDJ-70">
          <mxGeometry y="186" width="120" height="60" as="geometry" />
        </mxCell>
        <mxCell id="NywhrogExcATkgul4nDJ-51" style="edgeStyle=orthogonalEdgeStyle;rounded=0;orthogonalLoop=1;jettySize=auto;html=1;exitX=0.5;exitY=1;exitDx=0;exitDy=0;entryX=0.427;entryY=-0.002;entryDx=0;entryDy=0;entryPerimeter=0;" edge="1" parent="NywhrogExcATkgul4nDJ-70" source="NywhrogExcATkgul4nDJ-12" target="NywhrogExcATkgul4nDJ-38">
          <mxGeometry relative="1" as="geometry" />
        </mxCell>
        <mxCell id="NywhrogExcATkgul4nDJ-53" value="Меню администратора" style="swimlane;whiteSpace=wrap;html=1;" vertex="1" parent="NywhrogExcATkgul4nDJ-70">
          <mxGeometry x="350" y="26" width="150" height="140" as="geometry" />
        </mxCell>
        <mxCell id="NywhrogExcATkgul4nDJ-54" value="Справочники" style="text;html=1;align=center;verticalAlign=middle;resizable=0;points=[];autosize=1;strokeColor=none;fillColor=none;" vertex="1" parent="NywhrogExcATkgul4nDJ-53">
          <mxGeometry x="15" y="28" width="100" height="30" as="geometry" />
        </mxCell>
        <mxCell id="NywhrogExcATkgul4nDJ-55" value="Оплата" style="text;html=1;align=center;verticalAlign=middle;resizable=0;points=[];autosize=1;strokeColor=none;fillColor=none;" vertex="1" parent="NywhrogExcATkgul4nDJ-53">
          <mxGeometry x="19" y="55" width="60" height="30" as="geometry" />
        </mxCell>
        <mxCell id="NywhrogExcATkgul4nDJ-56" value="Отзывы" style="text;html=1;align=center;verticalAlign=middle;resizable=0;points=[];autosize=1;strokeColor=none;fillColor=none;" vertex="1" parent="NywhrogExcATkgul4nDJ-53">
          <mxGeometry x="15" y="83" width="70" height="30" as="geometry" />
        </mxCell>
        <mxCell id="NywhrogExcATkgul4nDJ-57" value="Список e-mail" style="text;html=1;align=center;verticalAlign=middle;resizable=0;points=[];autosize=1;strokeColor=none;fillColor=none;" vertex="1" parent="NywhrogExcATkgul4nDJ-53">
          <mxGeometry x="15" y="110" width="100" height="30" as="geometry" />
        </mxCell>
        <mxCell id="NywhrogExcATkgul4nDJ-58" style="edgeStyle=orthogonalEdgeStyle;rounded=0;orthogonalLoop=1;jettySize=auto;html=1;exitX=0.5;exitY=0;exitDx=0;exitDy=0;entryX=0.95;entryY=1;entryDx=0;entryDy=0;entryPerimeter=0;" edge="1" parent="NywhrogExcATkgul4nDJ-70" source="NywhrogExcATkgul4nDJ-12" target="NywhrogExcATkgul4nDJ-57">
          <mxGeometry relative="1" as="geometry" />
        </mxCell>
        <mxCell id="NywhrogExcATkgul4nDJ-59" value="Меню менеджера" style="swimlane;whiteSpace=wrap;html=1;" vertex="1" parent="NywhrogExcATkgul4nDJ-70">
          <mxGeometry x="528" y="84" width="150" height="80" as="geometry" />
        </mxCell>
        <mxCell id="NywhrogExcATkgul4nDJ-64" value="Отчеты" style="text;html=1;align=center;verticalAlign=middle;resizable=0;points=[];autosize=1;strokeColor=none;fillColor=none;" vertex="1" parent="NywhrogExcATkgul4nDJ-59">
          <mxGeometry x="22" y="32" width="60" height="30" as="geometry" />
        </mxCell>
        <mxCell id="NywhrogExcATkgul4nDJ-68" value="" style="swimlane;startSize=0;fillColor=#DAE8FC;strokeColor=#6c8ebf;gradientColor=none;fillStyle=auto;" vertex="1" parent="NywhrogExcATkgul4nDJ-70">
          <mxGeometry x="339" width="361" height="200" as="geometry" />
        </mxCell>
        <mxCell id="NywhrogExcATkgul4nDJ-69" value="Административная часть" style="text;html=1;align=center;verticalAlign=middle;resizable=0;points=[];autosize=1;strokeColor=none;fillColor=none;fontColor=#373ccd;fontStyle=1" vertex="1" parent="NywhrogExcATkgul4nDJ-68">
          <mxGeometry x="189" y="16" width="160" height="30" as="geometry" />
        </mxCell>
      </root>
    </mxGraphModel>
  </diagram>
</mxfile>
